<svg width="62" height="62" viewBox="0 0 62 62" fill="none" xmlns="http://www.w3.org/2000/svg">
<path d="M41.0811 21.9713C41.0811 20.0074 40.4987 18.0876 39.4076 16.4547C38.3165 14.8218 36.7657 13.549 34.9513 12.7975C33.1369 12.0459 31.1404 11.8493 29.2142 12.2324C27.288 12.6156 25.5187 13.5613 24.13 14.95C22.7413 16.3387 21.7956 18.108 21.4125 20.0341C21.0293 21.9603 21.226 23.9568 21.9775 25.7712C22.7291 27.5857 24.0018 29.1365 25.6347 30.2276C27.2677 31.3186 29.1875 31.901 31.1514 31.901C33.7842 31.8988 36.3085 30.8519 38.1702 28.9902C40.0319 27.1285 41.0788 24.6041 41.0811 21.9713ZM28.1628 27.0282V24.9696H31.1901C31.4341 24.9693 31.668 24.8722 31.8405 24.6997C32.0131 24.5272 32.1101 24.2933 32.1104 24.0493V23.7756C32.1101 23.5316 32.0131 23.2977 31.8405 23.1252C31.668 22.9527 31.4341 22.8556 31.1901 22.8553H31.1598C30.4607 22.8549 29.784 22.6087 29.2482 22.1597C28.7123 21.7106 28.3515 21.0875 28.2288 20.3992C28.1061 19.711 28.2294 19.0015 28.577 18.3949C28.9247 17.7884 29.4746 17.3235 30.1306 17.0816V15.6066H32.1891V16.8987H34.2695V18.9573H31.1586C30.9205 18.9659 30.695 19.0666 30.5296 19.2382C30.3641 19.4097 30.2717 19.6387 30.2717 19.877C30.2717 20.1153 30.3641 20.3443 30.5296 20.5159C30.695 20.6874 30.9205 20.7881 31.1586 20.7967H31.1889C31.9787 20.7977 32.7358 21.1118 33.2943 21.6703C33.8527 22.2287 34.1669 22.9859 34.1678 23.7756V24.0493C34.167 24.6639 33.9763 25.2633 33.622 25.7655C33.2676 26.2677 32.7668 26.6482 32.1879 26.855V28.4426H30.1293V27.0282H28.1628Z" fill="url(#paint0_linear_737_330)"/>
<path d="M41.5206 39.2344C39.3204 39.1303 35.2371 39.3725 32.2436 42.0922V36.4965C35.9694 36.2146 39.4409 34.4999 41.9291 31.7125C44.4173 28.9251 45.7286 25.282 45.5876 21.5483C45.4465 17.8146 43.8641 14.2808 41.1726 11.6891C38.4812 9.09742 34.8902 7.64954 31.1538 7.64954C27.4174 7.64954 23.8264 9.09742 21.1349 11.6891C18.4435 14.2808 16.8611 17.8146 16.72 21.5483C16.579 25.282 17.8902 28.9251 20.3785 31.7125C22.8667 34.4999 26.3382 36.2146 30.0639 36.4965V42.0668C27.0729 39.3664 23.0042 39.1266 20.8112 39.2308C20.0892 39.2628 19.4054 39.5639 18.8944 40.0749C18.3834 40.5859 18.0822 41.2698 18.0502 41.9917C17.9437 44.2416 18.198 48.4654 21.0994 51.4746C23.1895 53.6434 26.2398 54.772 30.1717 54.8349C30.2928 54.8349 32.4132 54.8349 32.7074 54.8192C36.3766 54.6642 39.2404 53.5416 41.2336 51.4746C44.1399 48.4654 44.3881 44.2416 44.2816 41.9917C44.249 41.2703 43.9475 40.5872 43.4366 40.0769C42.9256 39.5666 42.2421 39.2661 41.5206 39.2344ZM19.289 21.9713C19.289 19.6242 19.985 17.3298 21.289 15.3782C22.593 13.4267 24.4464 11.9056 26.6148 11.0074C28.7833 10.1092 31.1694 9.87423 33.4714 10.3321C35.7734 10.79 37.8879 11.9203 39.5476 13.5799C41.2072 15.2396 42.3375 17.3541 42.7954 19.6561C43.2533 21.9581 43.0183 24.3442 42.1201 26.5127C41.2219 28.6811 39.7008 30.5345 37.7493 31.8385C35.7977 33.1425 33.5033 33.8385 31.1562 33.8385C28.0098 33.8353 24.9932 32.584 22.7684 30.3591C20.5435 28.1343 19.2922 25.1177 19.289 21.9713ZM20.2227 42.0934C20.232 41.914 20.3075 41.7445 20.4345 41.6175C20.5615 41.4904 20.7311 41.415 20.9105 41.4056C22.8092 41.316 26.3597 41.5122 28.7816 43.8469C30.3739 45.3811 31.2664 47.642 31.4456 50.5761C30.4014 49.0657 28.9198 47.9112 27.2001 47.2678L26.4638 49.4947C26.5777 49.5347 28.8046 50.3193 29.932 52.6431C26.7399 52.5463 24.2962 51.6441 22.6663 49.9573C20.3341 47.539 20.1379 43.9922 20.2227 42.0934ZM39.6594 49.9645C38.2402 51.4358 36.1973 52.3101 33.5793 52.5729C33.6242 52.3688 33.6481 52.1606 33.6507 51.9517C33.6798 49.3506 33.2608 47.1176 32.4023 45.2721C32.724 44.7535 33.1083 44.2765 33.5466 43.8517C35.6887 41.7859 38.7149 41.3935 40.6984 41.3935C40.9551 41.3935 41.1949 41.4008 41.4128 41.4105C41.592 41.4201 41.7613 41.4957 41.8881 41.6227C42.0148 41.7497 42.0901 41.9191 42.0995 42.0983C42.1951 43.9922 41.9977 47.539 39.6643 49.9597L39.6594 49.9645Z" fill="url(#paint1_linear_737_330)"/>
<defs>
<linearGradient id="paint0_linear_737_330" x1="21.2217" y1="13.2001" x2="43.0862" y2="16.5843" gradientUnits="userSpaceOnUse">
<stop stop-color="#97BC5D"/>
<stop offset="1" stop-color="#C0D997"/>
</linearGradient>
<linearGradient id="paint1_linear_737_330" x1="16.7097" y1="10.402" x2="48.9867" y2="13.4606" gradientUnits="userSpaceOnUse">
<stop stop-color="#97BC5D"/>
<stop offset="1" stop-color="#C0D997"/>
</linearGradient>
</defs>
</svg>
