<svg width="40" height="38" viewBox="0 0 40 38" fill="none" xmlns="http://www.w3.org/2000/svg">
<path d="M4.78455 30.2169H13.0839M36.5986 13.3916H3.40133H36.5986ZM36.5986 13.3916C38.1265 13.3916 39.365 12.136 39.365 10.5873V4.97885C39.365 3.43013 38.1265 2.17462 36.5986 2.17462H3.40133C1.87346 2.17462 0.634888 3.43013 0.634888 4.97885V10.5873C0.634888 12.136 1.87347 13.3916 3.40133 13.3916H36.5986ZM36.5986 13.3916C38.1265 13.3916 39.365 14.6471 39.365 16.1958V21.8043C39.365 23.353 38.1265 24.6085 36.5986 24.6085V13.3916ZM3.40133 13.3916C1.87347 13.3916 0.634888 14.6471 0.634888 16.1958V21.8043C0.634888 23.353 1.87347 24.6085 3.40133 24.6085V13.3916ZM36.5986 24.6085H3.40133H36.5986ZM36.5986 24.6085C38.1265 24.6085 39.365 25.864 39.365 27.4127V33.0212C39.365 34.57 38.1265 35.8254 36.5986 35.8254H3.40133C1.87347 35.8254 0.634888 34.57 0.634888 33.0212V27.4127C0.634888 25.864 1.87347 24.6085 3.40133 24.6085H36.5986ZM4.78455 7.78309H13.0839H4.78455ZM4.78455 19H13.0839H4.78455Z" stroke="url(#paint0_linear_737_383)" stroke-width="3"/>
<defs>
<linearGradient id="paint0_linear_737_383" x1="0.634888" y1="4.13758" x2="42.954" y2="11.6764" gradientUnits="userSpaceOnUse">
<stop stop-color="#97BC5D"/>
<stop offset="1" stop-color="#C0D997"/>
</linearGradient>
</defs>
</svg>
